<mxfile host="Electron" modified="2025-10-19T00:00:00.000Z" agent="Mozilla/5.0 (Windows NT 10.0; Win64; x64) AppleWebKit/537.36" etag="abc131" version="24.7.5" type="device">
  <diagram name="독서실 시스템 API" id="reading-room-diagram">
    <mxGraphModel dx="1422" dy="794" grid="1" gridSize="10" guides="1" tooltips="1" connect="1" arrows="1" fold="1" page="1" pageScale="1" pageWidth="1169" pageHeight="827" math="0" shadow="0">
      <root>
        <mxCell id="0"/>
        <mxCell id="1" parent="0"/>
        <mxCell id="title" value="📚 독서실 시스템 API&#xa;(좌석 예약 및 관리)" style="text;html=1;strokeColor=none;fillColor=none;align=center;verticalAlign=middle;whiteSpace=wrap;rounded=0;fontSize=24;fontStyle=1" parent="1" vertex="1">
          <mxGeometry x="350" y="20" width="400" height="60" as="geometry"/>
        </mxCell>
        <mxCell id="reading-room-status" value="POST /api/reading-room/status&#xa;📊 독서실 현황" style="rounded=1;whiteSpace=wrap;html=1;fillColor=#4CAF50;strokeColor=#2E7D32;fontColor=#FFFFFF;fontSize=12;fontStyle=1" parent="1" vertex="1">
          <mxGeometry x="200" y="120" width="180" height="80" as="geometry"/>
        </mxCell>
        <mxCell id="reading-room-seats" value="POST /api/reading-room/seats&#xa;💺 좌석 정보 조회" style="rounded=1;whiteSpace=wrap;html=1;fillColor=#2196F3;strokeColor=#0D47A1;fontColor=#FFFFFF;fontSize=12;fontStyle=1" parent="1" vertex="1">
          <mxGeometry x="420" y="120" width="180" height="80" as="geometry"/>
        </mxCell>
        <mxCell id="reading-room-reserve" value="POST /api/reading-room/reserve&#xa;📝 좌석 예약" style="rounded=1;whiteSpace=wrap;html=1;fillColor=#FF9800;strokeColor=#E65100;fontColor=#FFFFFF;fontSize=12;fontStyle=1" parent="1" vertex="1">
          <mxGeometry x="640" y="120" width="180" height="80" as="geometry"/>
        </mxCell>
        <mxCell id="reading-room-cancel" value="POST /api/reading-room/cancel&#xa;❌ 예약 취소" style="rounded=1;whiteSpace=wrap;html=1;fillColor=#9C27B0;strokeColor=#4A148C;fontColor=#FFFFFF;fontSize=12;fontStyle=1" parent="1" vertex="1">
          <mxGeometry x="200" y="240" width="180" height="80" as="geometry"/>
        </mxCell>
        <mxCell id="reading-room-extend" value="POST /api/reading-room/extend&#xa;⏰ 연장 신청" style="rounded=1;whiteSpace=wrap;html=1;fillColor=#FF5722;strokeColor=#BF360C;fontColor=#FFFFFF;fontSize=12;fontStyle=1" parent="1" vertex="1">
          <mxGeometry x="420" y="240" width="180" height="80" as="geometry"/>
        </mxCell>
        <mxCell id="reading-room-my-reservation" value="POST /api/reading-room/my-reservation&#xa;👤 내 예약 정보" style="rounded=1;whiteSpace=wrap;html=1;fillColor=#795548;strokeColor=#3E2723;fontColor=#FFFFFF;fontSize=12;fontStyle=1" parent="1" vertex="1">
          <mxGeometry x="640" y="240" width="180" height="80" as="geometry"/>
        </mxCell>
        <mxCell id="reading-room-admin-reservations" value="POST /api/reading-room/admin/reservations&#xa;👨‍💼 관리자 예약 관리" style="rounded=1;whiteSpace=wrap;html=1;fillColor=#607D8B;strokeColor=#263238;fontColor=#FFFFFF;fontSize=12;fontStyle=1" parent="1" vertex="1">
          <mxGeometry x="310" y="360" width="180" height="80" as="geometry"/>
        </mxCell>
        <mxCell id="seat-types" value="💺 좌석 유형&#xa;• 일반석&#xa;• 창가석&#xa;• 그룹석&#xa;• PC석" style="text;html=1;strokeColor=#2196F3;fillColor=#E3F2FD;align=left;verticalAlign=top;whiteSpace=wrap;rounded=1;fontSize=12" parent="1" vertex="1">
          <mxGeometry x="100" y="120" width="150" height="120" as="geometry"/>
        </mxCell>
        <mxCell id="reservation-rules" value="📋 예약 규칙&#xa;• 최대 4시간&#xa;• 연장 1회 가능&#xa;• 30분 전 취소&#xa;• 노쇼 페널티" style="text;html=1;strokeColor=#FF9800;fillColor=#FFF3E0;align=left;verticalAlign=top;whiteSpace=wrap;rounded=1;fontSize=12" parent="1" vertex="1">
          <mxGeometry x="850" y="120" width="150" height="120" as="geometry"/>
        </mxCell>
        <mxCell id="real-time-updates" value="🔄 실시간 업데이트&#xa;• WebSocket&#xa;• 좌석 상태&#xa;• 예약 변경 알림" style="text;html=1;strokeColor=#4CAF50;fillColor=#E8F5E8;align=left;verticalAlign=top;whiteSpace=wrap;rounded=1;fontSize=12" parent="1" vertex="1">
          <mxGeometry x="850" y="260" width="150" height="100" as="geometry"/>
        </mxCell>
        <mxCell id="flow1" value="" style="endArrow=classic;html=1;rounded=0;exitX=0.5;exitY=1;entryX=0.5;entryY=0" parent="1" source="reading-room-status" target="reading-room-seats" edge="1">
          <mxGeometry width="50" height="50" relative="1" as="geometry">
            <mxPoint x="-20" y="30" as="sourcePoint"/>
            <mxPoint x="30" y="-20" as="targetPoint"/>
          </mxGeometry>
        </mxCell>
        <mxCell id="flow2" value="" style="endArrow=classic;html=1;rounded=0;exitX=0.5;exitY=1;entryX=0.5;entryY=0" parent="1" source="reading-room-seats" target="reading-room-reserve" edge="1">
          <mxGeometry width="50" height="50" relative="1" as="geometry">
            <mxPoint x="-20" y="30" as="sourcePoint"/>
            <mxPoint x="30" y="-20" as="targetPoint"/>
          </mxGeometry>
        </mxCell>
        <mxCell id="flow3" value="" style="endArrow=classic;html=1;rounded=0;exitX=0.5;exitY=1;entryX=0.5;entryY=0" parent="1" source="reading-room-reserve" target="reading-room-cancel" edge="1">
          <mxGeometry width="50" height="50" relative="1" as="geometry">
            <mxPoint x="-20" y="30" as="sourcePoint"/>
            <mxPoint x="30" y="-20" as="targetPoint"/>
          </mxGeometry>
        </mxCell>
        <mxCell id="flow4" value="" style="endArrow=classic;html=1;rounded=0;exitX=0.5;exitY=1;entryX=0.5;entryY=0" parent="1" source="reading-room-reserve" target="reading-room-extend" edge="1">
          <mxGeometry width="50" height="50" relative="1" as="geometry">
            <mxPoint x="-20" y="30" as="sourcePoint"/>
            <mxPoint x="30" y="-20" as="targetPoint"/>
          </mxGeometry>
        </mxCell>
        <mxCell id="flow5" value="" style="endArrow=classic;html=1;rounded=0;exitX=0.5;exitY=1;entryX=0.5;entryY=0" parent="1" source="reading-room-reserve" target="reading-room-my-reservation" edge="1">
          <mxGeometry width="50" height="50" relative="1" as="geometry">
            <mxPoint x="-20" y="30" as="sourcePoint"/>
            <mxPoint x="30" y="-20" as="targetPoint"/>
          </mxGeometry>
        </mxCell>
        <mxCell id="flow6" value="" style="endArrow=classic;html=1;rounded=0;exitX=0.5;exitY=1;entryX=0.5;entryY=0" parent="1" source="reading-room-reserve" target="reading-room-admin-reservations" edge="1">
          <mxGeometry width="50" height="50" relative="1" as="geometry">
            <mxPoint x="-20" y="30" as="sourcePoint"/>
            <mxPoint x="30" y="-20" as="targetPoint"/>
          </mxGeometry>
        </mxCell>
        <mxCell id="legend" value="🎨 범례&#xa;🟢 POST - 현황&#xa;🔵 POST - 좌석정보&#xa;🟠 POST - 예약&#xa;🟣 POST - 취소&#xa;🟡 POST - 연장&#xa;🟤 POST - 내예약&#xa;🔵 POST - 관리자관리" style="text;html=1;strokeColor=none;fillColor=#F5F5F5;align=left;verticalAlign=top;whiteSpace=wrap;rounded=1;fontSize=10" parent="1" vertex="1">
          <mxGeometry x="100" y="480" width="200" height="140" as="geometry"/>
        </mxCell>
      </root>
    </mxGraphModel>
  </diagram>
</mxfile>